# Blender v2.90.1 OBJ File: 'PineTree.blend'
# www.blender.org
mtllib PineTree.mtl
o Cylinder.001
v 0.000000 0.038639 -0.663415
v 0.000000 3.449620 -0.397619
v 0.389946 0.038639 -0.536714
v 0.233715 3.449620 -0.321681
v 0.630945 0.038639 -0.205007
v 0.378159 3.449620 -0.122871
v 0.630945 0.038639 0.205007
v 0.378159 3.449620 0.122871
v 0.389946 0.038639 0.536714
v 0.233715 3.449620 0.321681
v -0.000000 0.038639 0.663415
v -0.000000 3.449620 0.397619
v -0.389946 0.038639 0.536714
v -0.233715 3.449620 0.321681
v -0.630945 0.038639 0.205007
v -0.378159 3.449620 0.122871
v -0.630945 0.038639 -0.205007
v -0.378159 3.449620 -0.122871
v -0.389946 0.038639 -0.536714
v -0.233715 3.449620 -0.321681
v 0.000000 1.291955 -0.472938
v 0.277986 1.291955 -0.382615
v 0.449791 1.291955 -0.146146
v 0.449791 1.291955 0.146146
v 0.277986 1.291955 0.382615
v -0.000000 1.291955 0.472938
v -0.277986 1.291955 0.382615
v -0.449791 1.291955 0.146146
v -0.449791 1.291955 -0.146146
v -0.277986 1.291955 -0.382615
v -0.000000 2.317765 -2.546177
v 1.811692 1.988536 -2.493581
v 2.421558 2.317765 -0.786812
v 2.931380 1.988536 0.952463
v 1.496605 2.317765 2.059901
v -0.000000 1.988536 3.082235
v -1.496606 2.317765 2.059901
v -2.931380 1.988536 0.952463
v -2.421558 2.317765 -0.786812
v -1.811692 1.988536 -2.493581
v -0.000000 4.414161 -2.577091
v -0.000000 7.210127 -1.704524
v -0.000000 9.347636 -1.549679
v 0.000000 12.143602 -0.855798
v 0.000000 14.281112 0.000000
v 0.000000 14.281112 -0.000000
v 0.608930 11.814372 -0.838120
v 0.752460 9.676865 -1.035672
v 1.212827 6.880898 -1.669314
v 1.251328 4.743390 -1.722306
v 0.000000 14.281112 -0.000000
v 0.813913 12.143600 -0.264456
v 1.473833 9.347635 -0.478877
v 1.621099 7.210126 -0.526727
v 2.450959 4.414161 -0.796365
v 0.000000 14.281112 -0.000000
v 0.985269 11.814372 0.320133
v 1.217506 9.676865 0.395592
v 1.962396 6.880898 0.637621
v 2.024692 4.743390 0.657862
v 0.000000 14.281112 -0.000000
v 0.503026 12.143600 0.692356
v 0.910878 9.347635 1.253717
v 1.001894 7.210126 1.378989
v 1.514776 4.414161 2.084911
v 0.000000 14.281112 0.000000
v -0.000000 11.814372 1.035973
v -0.000000 9.676865 1.280161
v -0.000000 6.880898 2.063385
v -0.000000 4.743390 2.128887
v 0.000000 14.281112 -0.000000
v -0.503026 12.143600 0.692355
v -0.910879 9.347635 1.253717
v -1.001894 7.210126 1.378989
v -1.514776 4.414161 2.084910
v 0.000000 14.281112 -0.000000
v -0.985269 11.814372 0.320134
v -1.217506 9.676865 0.395592
v -1.962396 6.880898 0.637621
v -2.024692 4.743390 0.657862
v 0.000000 14.281112 -0.000000
v -0.813913 12.143600 -0.264456
v -1.473832 9.347635 -0.478877
v -1.621099 7.210126 -0.526727
v -2.450959 4.414161 -0.796365
v 0.000000 14.281112 -0.000000
v -0.608930 11.814372 -0.838120
v -0.752460 9.676865 -1.035673
v -1.212827 6.880898 -1.669314
v -1.251328 4.743390 -1.722306
v 0.911369 5.284266 -1.254391
v 1.474625 5.284266 -0.479135
v 1.474625 5.284266 0.479135
v 0.911369 5.284266 1.254392
v -0.000000 5.284266 1.550513
v -0.911369 5.284266 1.254391
v -1.474626 5.284266 0.479135
v -1.474626 5.284266 -0.479135
v -0.911368 5.284266 -1.254392
v -0.000000 5.284266 -1.550513
v -0.000000 7.751003 -0.950977
v 0.558971 7.751002 -0.769357
v 0.904433 7.751002 -0.293868
v 0.904433 7.751002 0.293868
v 0.558970 7.751002 0.769357
v -0.000000 7.751002 0.950977
v -0.558971 7.751002 0.769357
v -0.904433 7.751002 0.293868
v -0.904433 7.751002 -0.293868
v -0.558970 7.751002 -0.769357
v 0.000000 10.217740 -0.646212
v 0.379834 10.217739 -0.522797
v 0.614584 10.217739 -0.199690
v 0.614584 10.217739 0.199690
v 0.379834 10.217739 0.522796
v -0.000000 10.217739 0.646212
v -0.379834 10.217739 0.522796
v -0.614584 10.217739 0.199691
v -0.614584 10.217739 -0.199691
v -0.379834 10.217739 -0.522797
v 0.000000 12.684478 -0.398715
v 0.234359 12.684477 -0.322567
v 0.379201 12.684477 -0.123210
v 0.379201 12.684477 0.123210
v 0.234359 12.684477 0.322567
v -0.000000 12.684477 0.398715
v -0.234359 12.684477 0.322567
v -0.379201 12.684477 0.123210
v -0.379201 12.684477 -0.123210
v -0.234359 12.684477 -0.322567
v -0.000000 2.956626 0.000000
v 0.000000 2.956626 0.000000
v 0.000000 2.956626 -0.000000
v 0.000000 2.956626 -0.000000
v 0.000000 2.956626 0.000000
v -0.000000 2.956626 0.000000
v 0.000000 2.956626 0.000000
v 0.000000 2.956626 -0.000000
v 0.000000 2.956626 -0.000000
v 0.000000 2.956626 0.000000
vt 0.702073 0.269118
vt 0.670069 0.068233
vt 0.684803 0.058931
vt 0.698826 0.262365
vt 0.657348 0.076051
vt 0.695745 0.259668
vt 0.645532 0.082450
vt 0.692863 0.260156
vt 0.633833 0.087497
vt 0.691098 0.263854
vt 0.621692 0.091320
vt 0.691449 0.269796
vt 0.608542 0.094233
vt 0.693726 0.279162
vt 0.593678 0.096553
vt 0.700340 0.292561
vt 0.576200 0.098925
vt 0.700831 0.283559
vt 0.555241 0.102610
vt 0.703132 0.279922
vt 0.703132 0.048130
vt 0.625973 0.047497
vt 0.618279 0.049760
vt 0.609704 0.036308
vt 0.616796 0.019855
vt 0.605172 0.000095
vt 0.606365 0.021717
vt 0.614449 0.045536
vt 0.622760 0.050519
vt 0.626545 0.041638
vt 0.623838 0.032657
vt 0.000095 0.658106
vt 0.074941 0.714435
vt 0.010296 0.711678
vt 0.069376 0.440504
vt 0.111558 0.371623
vt 0.110892 0.437562
vt 0.172364 0.158099
vt 0.188626 0.206572
vt 0.169534 0.198027
vt 0.229798 0.061704
vt 0.237246 0.037049
vt 0.237749 0.062469
vt 0.267277 0.000095
vt 0.220178 0.032815
vt 0.481263 0.710217
vt 0.555050 0.652010
vt 0.546079 0.705964
vt 0.436860 0.367941
vt 0.480631 0.435869
vt 0.439030 0.433883
vt 0.356041 0.204670
vt 0.371194 0.155838
vt 0.374934 0.195691
vt 0.303581 0.036294
vt 0.311587 0.060775
vt 0.303656 0.061720
vt 0.272232 0.000497
vt 0.320528 0.031680
vt 0.425468 0.657202
vt 0.424541 0.697886
vt 0.398615 0.445923
vt 0.326098 0.168546
vt 0.335312 0.207768
vt 0.296116 0.064295
vt 0.292544 0.038910
vt 0.371330 0.703852
vt 0.349643 0.384678
vt 0.356172 0.442584
vt 0.315517 0.216516
vt 0.284948 0.041436
vt 0.287640 0.064519
vt 0.271748 0.000943
vt 0.324683 0.658387
vt 0.324244 0.693355
vt 0.315943 0.454252
vt 0.289906 0.175041
vt 0.293733 0.215524
vt 0.279374 0.066912
vt 0.270604 0.001296
vt 0.277412 0.042046
vt 0.277807 0.701278
vt 0.274426 0.390622
vt 0.275059 0.447226
vt 0.272505 0.220899
vt 0.270490 0.043046
vt 0.270747 0.065925
vt 0.270013 0.001080
vt 0.230050 0.659402
vt 0.231222 0.694339
vt 0.234343 0.455157
vt 0.254068 0.175448
vt 0.251161 0.216007
vt 0.262145 0.067107
vt 0.263545 0.042203
vt 0.184384 0.705788
vt 0.199104 0.386373
vt 0.193879 0.444391
vt 0.229406 0.217493
vt 0.255993 0.041764
vt 0.253826 0.064903
vt 0.269426 0.001274
vt 0.129394 0.660373
vt 0.131183 0.700924
vt 0.151542 0.448678
vt 0.217738 0.169778
vt 0.209418 0.209197
vt 0.245346 0.064872
vt 0.248340 0.039412
vt 0.268858 0.001081
vt 0.268268 0.000964
vt 0.107773 0.899041
vt 0.168860 0.856225
vt 0.207836 0.841806
vt 0.245440 0.830762
vt 0.279135 0.829448
vt 0.312670 0.830119
vt 0.350370 0.840458
vt 0.389886 0.854267
vt 0.452366 0.896360
vt 0.555050 0.980425
vt 0.008066 0.984276
vt 0.074279 0.653190
vt 0.183122 0.655461
vt 0.277309 0.654517
vt 0.371531 0.653441
vt 0.480557 0.648766
vt 0.160617 0.376343
vt 0.237738 0.385919
vt 0.310997 0.385095
vt 0.387902 0.373776
vt 0.513026 0.352291
vt 0.035077 0.357721
vt 0.197777 0.162426
vt 0.236242 0.171379
vt 0.271973 0.174035
vt 0.307635 0.170567
vt 0.345888 0.160742
vt 0.285065 0.989718
vt 0.275600 0.989611
vt 0.273458 0.991491
vt 0.288737 0.999905
vt 0.287890 0.996674
vt 0.280695 0.985174
vt 0.278064 0.988467
vt 0.283351 0.986926
vt 0.271902 0.994213
vt 0.286247 0.993946
vt 0.270300 0.996909
vt 0.267943 0.000324
vt 0.272773 0.000118
vt 0.271122 0.000960
vn 0.0000 0.6567 -0.7541
vn 0.5852 0.0938 -0.8055
vn 0.0000 0.0938 -0.9956
vn 0.4433 0.6567 -0.6101
vn 0.9469 0.0938 -0.3077
vn 0.7172 0.6567 -0.2330
vn 0.9469 0.0938 0.3077
vn 0.7172 0.6567 0.2330
vn 0.5852 0.0938 0.8055
vn 0.4433 0.6567 0.6101
vn 0.0000 0.0938 0.9956
vn -0.0000 0.6567 0.7541
vn -0.5852 0.0938 0.8055
vn -0.4433 0.6567 0.6101
vn -0.9469 0.0938 0.3077
vn -0.7172 0.6567 0.2330
vn -0.9469 0.0938 -0.3077
vn -0.7172 0.6567 -0.2330
vn -0.5852 0.0938 -0.8055
vn -0.4433 0.6567 -0.6101
vn 0.7704 -0.5863 0.2503
vn -0.0000 -0.5863 0.8101
vn -0.7704 -0.5863 0.2503
vn 0.0000 -0.5863 -0.8101
vn -0.4761 -0.5863 -0.6554
vn -0.7704 -0.5863 -0.2503
vn -0.4761 -0.5863 0.6554
vn 0.4761 -0.5863 0.6554
vn 0.7704 -0.5863 -0.2503
vn 0.4761 -0.5863 -0.6554
vn 0.3929 -0.7437 0.5408
vn -0.0000 -0.7523 0.6588
vn 0.4015 -0.7304 0.5526
vn 0.3534 -0.7991 0.4864
vn -0.0000 -0.8026 0.5965
vn -0.0000 -0.8124 0.5831
vn 0.3922 -0.7448 0.5398
vn -0.0000 -0.7416 0.6708
vn 0.3815 -0.7607 0.5251
vn 0.4593 -0.6240 0.6322
vn 0.0000 -0.6236 0.7818
vn 0.0000 -0.6455 0.7638
vn -0.6220 0.4166 -0.6630
vn -0.2222 0.3624 -0.9051
vn -0.5419 0.3872 -0.7459
vn 0.6266 -0.7523 0.2036
vn 0.5673 -0.8026 0.1843
vn 0.5546 -0.8124 0.1802
vn 0.6380 -0.7416 0.2073
vn 0.7435 -0.6236 0.2416
vn 0.7264 -0.6455 0.2360
vn -0.7304 0.2139 0.6486
vn -0.8829 0.3717 -0.2869
vn 0.6358 -0.7437 -0.2066
vn 0.6496 -0.7304 -0.2111
vn 0.5718 -0.7991 -0.1858
vn 0.6346 -0.7448 -0.2062
vn 0.6173 -0.7607 -0.2006
vn 0.7432 -0.6240 -0.2415
vn -0.8769 0.3872 0.2849
vn 0.3872 -0.7523 -0.5330
vn 0.3506 -0.8026 -0.4826
vn 0.3427 -0.8124 -0.4717
vn 0.3943 -0.7416 -0.5427
vn 0.4595 -0.6236 -0.6325
vn 0.4489 -0.6455 -0.6179
vn -0.5457 0.3717 0.7511
vn -0.0467 0.0238 0.9986
vn -0.0000 -0.7437 -0.6685
vn 0.0000 -0.7304 -0.6830
vn -0.0000 -0.7991 -0.6012
vn 0.0000 -0.7448 -0.6672
vn 0.0000 -0.7607 -0.6491
vn -0.0000 -0.6240 -0.7814
vn -0.0414 0.0426 0.9982
vn -0.3523 0.3624 0.8629
vn -0.3872 -0.7523 -0.5330
vn -0.3506 -0.8026 -0.4826
vn -0.3427 -0.8124 -0.4717
vn -0.3943 -0.7416 -0.5427
vn -0.4595 -0.6236 -0.6325
vn -0.4489 -0.6455 -0.6179
vn 0.5457 0.3717 0.7511
vn 0.3523 0.3624 0.8629
vn -0.6358 -0.7437 -0.2066
vn -0.6496 -0.7304 -0.2111
vn -0.5718 -0.7991 -0.1858
vn -0.6346 -0.7448 -0.2062
vn -0.6173 -0.7607 -0.2006
vn -0.7432 -0.6240 -0.2415
vn 0.7118 0.3624 0.6017
vn -0.6266 -0.7523 0.2036
vn -0.5673 -0.8026 0.1843
vn -0.5546 -0.8124 0.1802
vn -0.6380 -0.7416 0.2073
vn -0.7435 -0.6236 0.2416
vn -0.7264 -0.6455 0.2360
vn 0.9295 0.3624 -0.0684
vn 0.1393 0.0543 0.9888
vn -0.3929 -0.7437 0.5408
vn -0.4015 -0.7304 0.5526
vn -0.3534 -0.7991 0.4864
vn -0.3922 -0.7448 0.5398
vn -0.3815 -0.7607 0.5251
vn -0.4593 -0.6240 0.6322
vn 0.7922 0.3624 -0.4910
vn 0.2222 0.3624 -0.9051
vn 0.0000 0.3656 -0.9308
vn 0.5509 0.3488 -0.7582
vn 0.5330 0.4215 -0.7337
vn 0.8852 0.3656 -0.2876
vn 0.8913 0.3488 0.2896
vn 0.8625 0.4215 0.2802
vn 0.5471 0.3656 0.7530
vn -0.0000 0.3488 0.9372
vn -0.0000 0.4215 0.9068
vn -0.5471 0.3656 0.7530
vn -0.8913 0.3488 0.2896
vn -0.8625 0.4215 0.2802
vn -0.8852 0.3656 -0.2876
vn -0.5509 0.3488 -0.7582
vn -0.5330 0.4215 -0.7337
vn -0.0000 0.3824 -0.9240
vn 0.5408 0.3916 -0.7444
vn -0.0000 0.4381 -0.8989
vn 0.8788 0.3824 -0.2855
vn 0.8549 0.4381 -0.2778
vn 0.8751 0.3916 0.2843
vn 0.5431 0.3824 0.7475
vn 0.5284 0.4381 0.7273
vn -0.0000 0.3916 0.9201
vn -0.5431 0.3824 0.7475
vn -0.5284 0.4381 0.7273
vn -0.8751 0.3916 0.2843
vn -0.8788 0.3824 -0.2855
vn -0.8549 0.4381 -0.2778
vn -0.5408 0.3916 -0.7444
vn 0.0000 0.3509 -0.9364
vn 0.5520 0.3436 -0.7598
vn 0.5410 0.3909 -0.7446
vn 0.8906 0.3509 -0.2894
vn 0.8931 0.3436 0.2902
vn 0.8754 0.3909 0.2844
vn 0.5504 0.3509 0.7576
vn -0.0000 0.3436 0.9391
vn -0.0000 0.3909 0.9204
vn -0.5504 0.3509 0.7576
vn -0.8931 0.3436 0.2902
vn -0.8754 0.3909 0.2844
vn -0.8906 0.3509 -0.2894
vn -0.5520 0.3436 -0.7598
vn -0.5410 0.3909 -0.7446
vn 0.0000 0.2881 -0.9576
vn 0.5619 0.2934 -0.7734
vn 0.0000 0.3261 -0.9453
vn 0.9107 0.2881 -0.2959
vn 0.8991 0.3261 -0.2921
vn 0.9092 0.2934 0.2954
vn 0.5629 0.2881 0.7747
vn 0.5557 0.3261 0.7648
vn -0.0000 0.2934 0.9560
vn -0.5629 0.2881 0.7747
vn -0.5557 0.3261 0.7648
vn -0.9092 0.2934 0.2954
vn -0.9107 0.2881 -0.2959
vn -0.8991 0.3261 -0.2921
vn -0.5619 0.2934 -0.7734
vn 0.2850 -0.9540 -0.0926
vn 0.2050 -0.9757 -0.0771
vn 0.1430 -0.9699 -0.1969
vn -0.1761 -0.9539 0.2430
vn -0.0248 -0.1374 0.9902
vn 0.0000 0.0000 1.0000
vn -0.4472 0.8944 0.0000
vn -0.2850 -0.9541 -0.0926
vn -0.1366 -0.9785 -0.1545
vn -0.1994 -0.7525 0.6277
vn 0.0000 0.9540 0.2997
vn -0.0000 -0.6748 0.7380
vn 0.0000 -0.9699 0.2434
vn 0.1056 -0.3556 0.9287
vn 0.1526 -0.6104 0.7773
vn -0.2315 -0.9699 0.0752
vn 0.0000 0.0000 -1.0000
vn 0.0052 -0.9540 -0.2996
vn -0.1430 -0.9699 -0.1969
vn -0.0000 -0.7629 0.6466
vn 0.3621 -0.7877 0.4984
vn -0.0000 -0.7203 0.6937
vn 0.4742 -0.5909 0.6527
vn 0.0000 0.3717 -0.9284
vn 0.6149 -0.7629 0.1998
vn 0.6597 -0.7203 0.2144
vn 0.5859 -0.7877 -0.1904
vn 0.7673 -0.5909 -0.2493
vn 0.3800 -0.7629 -0.5231
vn 0.4077 -0.7203 -0.5612
vn 0.0000 -0.7877 -0.6161
vn 0.0000 -0.5909 -0.8068
vn -0.3800 -0.7629 -0.5231
vn -0.4077 -0.7203 -0.5612
vn 0.0000 -0.3872 -0.9220
vn -0.5859 -0.7877 -0.1904
vn -0.7673 -0.5909 -0.2493
vn -0.8944 -0.4472 0.0000
vn -0.6149 -0.7629 0.1998
vn -0.6597 -0.7203 0.2144
vn -0.3621 -0.7877 0.4984
vn -0.4742 -0.5909 0.6527
vn 0.0000 -0.3717 0.9284
vn 0.0000 0.3182 -0.9480
vn 0.9016 0.3182 -0.2930
vn 0.5572 0.3182 0.7670
vn -0.5572 0.3182 0.7670
vn -0.9016 0.3182 -0.2930
vn 0.5473 0.3647 -0.7533
vn 0.8856 0.3647 0.2877
vn -0.0000 0.3647 0.9311
vn -0.8856 0.3647 0.2877
vn -0.5473 0.3647 -0.7533
vn -0.0000 0.3319 -0.9433
vn 0.8971 0.3319 -0.2915
vn 0.5545 0.3319 0.7631
vn -0.5545 0.3319 0.7631
vn -0.8971 0.3319 -0.2915
vn 0.5641 0.2812 -0.7764
vn 0.9127 0.2812 0.2965
vn -0.0000 0.2812 0.9596
vn -0.9127 0.2812 0.2965
vn -0.5641 0.2812 -0.7764
vn 0.1719 -0.9540 0.2455
vn -0.0052 -0.9540 -0.2996
vn 0.2834 -0.9540 -0.0975
vn 0.1803 -0.9540 0.2394
vn 0.0000 -0.9540 -0.2997
usemtl Material
s 1
f 2/1/1 22/2/2 21/3/3
f 4/4/4 23/5/5 22/2/2
f 6/6/6 24/7/7 23/5/5
f 8/8/8 25/9/9 24/7/7
f 10/10/10 26/11/11 25/9/9
f 12/12/12 27/13/13 26/11/11
f 14/14/14 28/15/15 27/13/13
f 16/16/16 29/17/17 28/15/15
f 18/18/18 14/14/14 10/10/10
f 18/18/18 30/19/19 29/17/17
f 20/20/20 21/3/3 30/21/19
f 7/22/21 11/23/22 15/24/23
f 30/21/19 1/25/24 19/26/25
f 29/17/17 19/26/25 17/27/26
f 28/15/15 17/27/26 15/24/23
f 27/13/13 15/24/23 13/28/27
f 26/11/11 13/28/27 11/23/22
f 9/29/28 26/11/11 11/23/22
f 24/7/7 9/29/28 7/22/21
f 23/5/5 7/22/21 5/30/29
f 22/2/2 5/30/29 3/31/30
f 21/3/3 3/31/30 1/25/24
f 90/32/31 100/33/32 99/34/33
f 110/35/34 42/36/35 101/37/36
f 88/38/37 111/39/38 120/40/39
f 130/41/40 44/42/41 121/43/42
f 86/44/43 44/42/44 87/45/45
f 98/46/46 90/47/31 99/48/33
f 84/49/47 110/50/34 109/51/48
f 119/52/49 88/53/37 120/54/39
f 82/55/50 130/56/40 129/57/51
f 81/58/52 87/59/45 82/55/53
f 80/60/54 98/46/46 97/61/55
f 108/62/56 84/49/47 109/51/48
f 78/63/57 119/52/49 118/64/58
f 128/65/59 82/55/50 129/57/51
f 77/66/60 81/58/52 82/55/53
f 96/67/61 80/60/54 97/61/55
f 74/68/62 108/62/56 107/69/63
f 117/70/64 78/63/57 118/64/58
f 72/71/65 128/65/59 127/72/66
f 72/71/67 76/73/68 77/66/60
f 70/74/69 96/67/61 95/75/70
f 106/76/71 74/68/62 107/69/63
f 68/77/72 117/70/64 116/78/73
f 126/79/74 72/71/65 127/72/66
f 66/80/75 72/71/67 67/81/76
f 94/82/77 70/74/69 95/75/70
f 64/83/78 106/76/71 105/84/79
f 115/85/80 68/77/72 116/78/73
f 62/86/81 126/79/74 125/87/82
f 61/88/83 67/81/84 62/86/83
f 60/89/85 94/82/77 93/90/86
f 104/91/87 64/83/78 105/84/79
f 58/92/88 115/85/80 114/93/89
f 124/94/90 62/86/81 125/87/82
f 57/95/91 61/88/83 62/86/83
f 92/96/92 60/89/85 93/90/86
f 54/97/93 104/91/87 103/98/94
f 113/99/95 58/92/88 114/93/89
f 52/100/96 124/94/90 123/101/97
f 52/100/98 56/102/99 57/95/98
f 50/103/100 92/96/92 91/104/101
f 102/105/102 54/97/93 103/98/94
f 48/106/103 113/99/95 112/107/104
f 122/108/105 52/100/96 123/101/97
f 47/109/106 51/110/106 52/100/106
f 100/33/32 50/103/100 91/104/101
f 42/36/35 102/105/102 101/37/36
f 111/39/38 48/106/103 112/107/104
f 44/42/41 122/108/105 121/43/42
f 44/42/107 46/111/107 47/109/107
f 31/112/108 91/104/109 32/113/110
f 91/104/109 33/114/111 32/113/110
f 33/114/111 93/90/112 34/115/113
f 93/90/112 35/116/114 34/115/113
f 35/116/114 95/75/115 36/117/116
f 95/75/115 37/118/117 36/117/116
f 37/118/117 97/61/118 38/119/119
f 97/61/118 39/120/120 38/119/119
f 39/120/120 99/48/121 40/121/122
f 99/34/121 31/112/108 40/122/122
f 101/37/123 50/103/124 41/123/125
f 50/103/124 103/98/126 55/124/127
f 103/98/126 60/89/128 55/124/127
f 60/89/128 105/84/129 65/125/130
f 105/84/129 70/74/131 65/125/130
f 70/74/131 107/69/132 75/126/133
f 107/69/132 80/60/134 75/126/133
f 80/60/134 109/51/135 85/127/136
f 109/51/135 90/47/137 85/127/136
f 90/32/137 101/37/123 41/123/125
f 42/36/138 112/107/139 49/128/140
f 112/107/139 54/97/141 49/128/140
f 54/97/141 114/93/142 59/129/143
f 114/93/142 64/83/144 59/129/143
f 64/83/144 116/78/145 69/130/146
f 116/78/145 74/68/147 69/130/146
f 74/68/147 118/64/148 79/131/149
f 118/64/148 84/49/150 79/131/149
f 84/49/150 120/54/151 89/132/152
f 120/40/151 42/36/138 89/133/152
f 121/43/153 48/106/154 43/134/155
f 48/106/154 123/101/156 53/135/157
f 123/101/156 58/92/158 53/135/157
f 58/92/158 125/87/159 63/136/160
f 125/87/159 68/77/161 63/136/160
f 68/77/161 127/72/162 73/137/163
f 127/72/162 78/63/164 73/137/163
f 78/63/164 129/57/165 83/138/166
f 129/57/165 88/53/167 83/138/166
f 88/38/167 121/43/153 43/134/155
f 38/119/168 137/139/169 37/118/170
f 32/113/171 133/140/172 132/141/173
f 39/120/174 140/142/174 139/143/174
f 34/115/175 135/144/176 134/145/177
f 36/117/178 137/139/178 136/146/178
f 32/113/171 131/147/179 31/112/180
f 38/119/168 139/143/181 138/148/182
f 33/114/183 134/145/177 133/140/172
f 40/122/184 131/147/184 140/149/184
f 36/117/185 135/144/176 35/116/186
f 2/1/1 4/4/4 22/2/2
f 4/4/4 6/6/6 23/5/5
f 6/6/6 8/8/8 24/7/7
f 8/8/8 10/10/10 25/9/9
f 10/10/10 12/12/12 26/11/11
f 12/12/12 14/14/14 27/13/13
f 14/14/14 16/16/16 28/15/15
f 16/16/16 18/18/18 29/17/17
f 6/6/6 4/4/4 2/1/1
f 2/1/1 20/20/20 18/18/18
f 18/18/18 16/16/16 14/14/14
f 14/14/14 12/12/12 10/10/10
f 10/10/10 8/8/8 18/18/18
f 8/8/8 6/6/6 18/18/18
f 6/6/6 2/1/1 18/18/18
f 18/18/18 20/20/20 30/19/19
f 20/20/20 2/1/1 21/3/3
f 19/26/25 1/25/24 3/31/30
f 3/31/30 5/30/29 19/26/25
f 5/30/29 7/22/21 19/26/25
f 7/22/21 9/29/28 11/23/22
f 11/23/22 13/28/27 15/24/23
f 15/24/23 17/27/26 7/22/21
f 17/27/26 19/26/25 7/22/21
f 30/21/19 21/3/3 1/25/24
f 29/17/17 30/19/19 19/26/25
f 28/15/15 29/17/17 17/27/26
f 27/13/13 28/15/15 15/24/23
f 26/11/11 27/13/13 13/28/27
f 9/29/28 25/9/9 26/11/11
f 24/7/7 25/9/9 9/29/28
f 23/5/5 24/7/7 7/22/21
f 22/2/2 23/5/5 5/30/29
f 21/3/3 22/2/2 3/31/30
f 90/32/31 41/123/187 100/33/32
f 110/35/34 89/133/188 42/36/35
f 88/38/37 43/134/189 111/39/38
f 130/41/40 87/45/190 44/42/41
f 86/44/43 45/150/191 44/42/44
f 98/46/46 85/127/192 90/47/31
f 84/49/47 89/132/188 110/50/34
f 119/52/49 83/138/193 88/53/37
f 82/55/50 87/59/190 130/56/40
f 81/58/52 86/151/43 87/59/45
f 80/60/54 85/127/192 98/46/46
f 108/62/56 79/131/194 84/49/47
f 78/63/57 83/138/193 119/52/49
f 128/65/59 77/66/195 82/55/50
f 77/66/60 76/73/68 81/58/52
f 96/67/61 75/126/196 80/60/54
f 74/68/62 79/131/194 108/62/56
f 117/70/64 73/137/197 78/63/57
f 72/71/65 77/66/195 128/65/59
f 72/71/67 71/152/173 76/73/68
f 70/74/69 75/126/196 96/67/61
f 106/76/71 69/130/198 74/68/62
f 68/77/72 73/137/197 117/70/64
f 126/79/74 67/81/199 72/71/65
f 66/80/75 71/152/173 72/71/67
f 94/82/77 65/125/200 70/74/69
f 64/83/78 69/130/198 106/76/71
f 115/85/80 63/136/201 68/77/72
f 62/86/81 67/81/199 126/79/74
f 61/88/202 66/80/202 67/81/202
f 60/89/85 65/125/200 94/82/77
f 104/91/87 59/129/203 64/83/78
f 58/92/88 63/136/201 115/85/80
f 124/94/90 57/95/204 62/86/81
f 57/95/205 56/102/205 61/88/205
f 92/96/92 55/124/206 60/89/85
f 54/97/93 59/129/203 104/91/87
f 113/99/95 53/135/207 58/92/88
f 52/100/96 57/95/204 124/94/90
f 52/100/98 51/110/173 56/102/99
f 50/103/100 55/124/206 92/96/92
f 102/105/102 49/128/208 54/97/93
f 48/106/103 53/135/207 113/99/95
f 122/108/105 47/109/209 52/100/96
f 47/109/173 46/111/173 51/110/173
f 100/33/32 41/123/187 50/103/100
f 42/36/35 49/128/208 102/105/102
f 111/39/38 43/134/189 48/106/103
f 44/42/41 47/109/209 122/108/105
f 44/42/210 45/150/210 46/111/210
f 31/112/108 100/33/211 91/104/109
f 91/104/109 92/96/212 33/114/111
f 33/114/111 92/96/212 93/90/112
f 93/90/112 94/82/213 35/116/114
f 35/116/114 94/82/213 95/75/115
f 95/75/115 96/67/214 37/118/117
f 37/118/117 96/67/214 97/61/118
f 97/61/118 98/46/215 39/120/120
f 39/120/120 98/46/215 99/48/121
f 99/34/121 100/33/211 31/112/108
f 101/37/123 102/105/216 50/103/124
f 50/103/124 102/105/216 103/98/126
f 103/98/126 104/91/217 60/89/128
f 60/89/128 104/91/217 105/84/129
f 105/84/129 106/76/218 70/74/131
f 70/74/131 106/76/218 107/69/132
f 107/69/132 108/62/219 80/60/134
f 80/60/134 108/62/219 109/51/135
f 109/51/135 110/50/220 90/47/137
f 90/32/137 110/35/220 101/37/123
f 42/36/138 111/39/221 112/107/139
f 112/107/139 113/99/222 54/97/141
f 54/97/141 113/99/222 114/93/142
f 114/93/142 115/85/223 64/83/144
f 64/83/144 115/85/223 116/78/145
f 116/78/145 117/70/224 74/68/147
f 74/68/147 117/70/224 118/64/148
f 118/64/148 119/52/225 84/49/150
f 84/49/150 119/52/225 120/54/151
f 120/40/151 111/39/221 42/36/138
f 121/43/153 122/108/226 48/106/154
f 48/106/154 122/108/226 123/101/156
f 123/101/156 124/94/227 58/92/158
f 58/92/158 124/94/227 125/87/159
f 125/87/159 126/79/228 68/77/161
f 68/77/161 126/79/228 127/72/162
f 127/72/162 128/65/229 78/63/164
f 78/63/164 128/65/229 129/57/165
f 129/57/165 130/56/230 88/53/167
f 88/38/167 130/41/230 121/43/153
f 38/119/168 138/148/182 137/139/169
f 32/113/171 33/114/183 133/140/172
f 39/120/231 40/121/231 140/142/231
f 34/115/175 35/116/186 135/144/176
f 36/117/232 37/118/170 137/139/169
f 32/113/171 132/141/173 131/147/179
f 38/119/168 39/120/233 139/143/181
f 33/114/183 34/115/175 134/145/177
f 40/122/234 31/112/180 131/147/179
f 36/117/185 136/146/235 135/144/176
